<mxfile host="app.diagrams.net" modified="2024-05-30T00:09:00.039Z" agent="Mozilla/5.0 (Windows NT 10.0; Win64; x64) AppleWebKit/537.36 (KHTML, like Gecko) Chrome/125.0.0.0 Safari/537.36" version="24.4.3" etag="qTkolIs30fOhtvoM6vxN" type="github">
  <diagram name="페이지-1" id="-mng61E6sjw_rT2xIvNb">
    <mxGraphModel>
      <root>
        <mxCell id="0" />
        <mxCell id="1" parent="0" />
      </root>
    </mxGraphModel>
  </diagram>
</mxfile>
